HIERARCHY
ROOT root
{
	OFFSET	0	13.1	24.9
	CHANNELS 6  Xposition Yposition Zposition Xrotation Yrotation Zrotation
	JOINT spine_1
	{
		OFFSET	0	9.99999	0
		CHANNELS 3  Xrotation Yrotation Zrotation
		JOINT spine_2
		{
			OFFSET	0	112	-10
			CHANNELS 3  Xrotation Yrotation Zrotation
			JOINT spine_3
			{
				OFFSET	0	206.5	19.3
				CHANNELS 3  Xrotation Yrotation Zrotation
				JOINT spine_4
				{
					OFFSET	0	110.4	14.6
					CHANNELS 3  Xrotation Yrotation Zrotation
					JOINT neck_1
					{
						OFFSET	0	71.8	-50.3
						CHANNELS 3  Xrotation Yrotation Zrotation
						JOINT neck_2
						{
							OFFSET	0	86.2	-25.8
							CHANNELS 3  Xrotation Yrotation Zrotation
							JOINT head_ee
							{
								OFFSET	0	179.8	-8.7
								CHANNELS 3  Xrotation Yrotation Zrotation
								End Site
								{
									OFFSET	1	0	0
								}
							}
						}
					}
					JOINT left_clavicle
					{
						OFFSET	-43.2	22.4	-70.8
						CHANNELS 3  Xrotation Yrotation Zrotation
						JOINT left_shoulder
						{
							OFFSET	-93.9	-5.79999	48.7
							CHANNELS 3  Xrotation Yrotation Zrotation
							JOINT left_elbow
							{
								OFFSET	-291.4	-30.8	15.2
								CHANNELS 3  Xrotation Yrotation Zrotation
								JOINT left_lowarm_twist
								{
									OFFSET	-110.7	-3.89999	13.6
									CHANNELS 3  Xrotation Yrotation Zrotation
									JOINT left_hand
									{
										OFFSET	-110.7	-3.89999	13.6
										CHANNELS 3  Xrotation Yrotation Zrotation
										JOINT left_ee
										{
											OFFSET	-80.8	-5.10001	12.1
											CHANNELS 3  Xrotation Yrotation Zrotation
											End Site
											{
												OFFSET	1	0	0
											}
										}
									}
								}
							}
						}
					}
					JOINT right_clavicle
					{
						OFFSET	43.2	22.4	-70.8
						CHANNELS 3  Xrotation Yrotation Zrotation
						JOINT right_shoulder
						{
							OFFSET	93.9	-5.79999	48.7
							CHANNELS 3  Xrotation Yrotation Zrotation
							JOINT right_elbow
							{
								OFFSET	291.4	-30.8	15.2
								CHANNELS 3  Xrotation Yrotation Zrotation
								JOINT right_lowarm_twist
								{
									OFFSET	110.7	-3.89999	13.6
									CHANNELS 3  Xrotation Yrotation Zrotation
									JOINT right_hand
									{
										OFFSET	110.7	-3.89999	13.6
										CHANNELS 3  Xrotation Yrotation Zrotation
										JOINT right_ee
										{
											OFFSET	80.8	-5.10001	12.1
											CHANNELS 3  Xrotation Yrotation Zrotation
											End Site
											{
												OFFSET	1	0	0
											}
										}
									}
								}
							}
						}
					}
				}
			}
		}
	}
	JOINT left_hip
	{
		OFFSET	-82.8	-127.5	0.300001
		CHANNELS 3  Xrotation Yrotation Zrotation
		JOINT left_knee
		{
			OFFSET	-28.2	-396.7	2.2
			CHANNELS 3  Xrotation Yrotation Zrotation
			JOINT left_ankle
			{
				OFFSET	-11.7	-411.3	35.4
				CHANNELS 3  Xrotation Yrotation Zrotation
				JOINT left_toes
				{
					OFFSET	0	-60	-88.6
					CHANNELS 3  Xrotation Yrotation Zrotation
					JOINT left_foot_ee
					{
						OFFSET	-22.5	-16.5	-42.2
						CHANNELS 3  Xrotation Yrotation Zrotation
						End Site
						{
							OFFSET	1	0	0
						}
					}
				}
			}
		}
	}
	JOINT right_hip
	{
		OFFSET	82.8	-127.5	0.300001
		CHANNELS 3  Xrotation Yrotation Zrotation
		JOINT right_knee
		{
			OFFSET	28.2	-396.7	2.2
			CHANNELS 3  Xrotation Yrotation Zrotation
			JOINT right_ankle
			{
				OFFSET	11.7	-411.3	35.4
				CHANNELS 3  Xrotation Yrotation Zrotation
				JOINT right_toes
				{
					OFFSET	0	-60	-88.6
					CHANNELS 3  Xrotation Yrotation Zrotation
					JOINT right_foot_ee
					{
						OFFSET	22.5	-16.5	-42.2
						CHANNELS 3  Xrotation Yrotation Zrotation
						End Site
						{
							OFFSET	1	0	0
						}
					}
				}
			}
		}
	}
}
MOTION
Frames: 16
Frame Time: 0.02
3067.33 718.474 -485.072 -166.901 -79.3703 -162.351 2.3384 -0.114508 -1.99462 2.34061 0.0126216 -1.99787 2.33983 0.352389 -1.9666 2.33444 0.0374438 -1.99756 -8.8585 6.14108 -2.76611 -8.86497 13.421 -1.29958 -0.0 0.0 -0.0 -0.682941 23.3923 1.77126 -28.5112 -33.6446 68.696 0.417092 -11.6741 0.0426395 -53.2878 -4.46177 4.84371 2.17388 10.3031 18.521 -0.0 0.0 -0.0 3.96828 1.60954 -7.57072 -5.07901 21.2436 -64.7612 2.191 47.3377 -0.960455 68.1189 2.54755 7.80361 1.81628 -10.1178 -16.0459 0.0 0.0 0.0 15.8744 24.4097 -15.9324 -3.47783 0.127489 0.518431 33.2248 -4.41215 -4.29008 -37.7657 0.0 0.0 -0.0 0.0 -0.0 5.26709 -0.269603 -8.7099 5.12626 0.244782 0.748126 22.7327 18.8645 3.39943 -19.3223 0.0 0.0 0.0 0.0 0.0 
3074.77 715.721 -483.666 -169.601 -79.1241 -165.22 2.42632 -0.0250348 -1.99688 2.42853 0.102057 -1.99442 2.42455 0.437102 -1.94863 2.41927 0.123931 -1.99319 -9.20139 7.92103 1.02399 -9.2466 14.1629 2.88708 -0.0 0.0 -0.0 -0.692735 23.3995 1.75878 -28.7543 -34.0677 68.1845 0.394889 -11.0684 0.0382617 -53.056 -4.43398 4.83311 2.08936 10.5489 18.0328 -0.0 0.0 -0.0 4.3481 2.24219 -8.28694 -6.03337 20.1516 -64.5792 2.18252 47.2271 -0.954229 70.4691 2.78919 7.98398 1.8226 -11.0721 -16.4222 0.0 0.0 0.0 15.8979 25.2612 -15.9803 -5.46219 0.186044 0.817324 36.4836 -2.03549 -4.57839 -33.4199 0.0 0.0 -0.0 0.0 -0.0 3.59726 -0.250197 -8.55727 6.32242 0.311486 0.919402 24.0007 19.5389 3.58298 -23.3661 0.0 0.0 0.0 0.0 0.0 
3081.18 714.852 -481.697 -171.151 -79.0804 -166.75 2.4338 -0.13689 -1.99877 2.43603 -0.00945205 -2.00343 2.43597 0.328254 -1.97639 2.43052 0.0120665 -2.00341 -7.25228 8.71207 2.64945 -7.24481 14.312 4.44134 -0.0 0.0 -0.0 -0.0214129 23.4293 2.68145 -29.3922 -34.1712 66.9772 0.303257 -8.54353 0.0226518 -53.18 -4.44884 4.8388 2.2403 9.74677 18.7815 -0.0 0.0 -0.0 5.11747 3.02878 -9.78218 -7.41218 18.6841 -64.026 2.16218 46.9597 -0.939331 71.472 2.89452 8.05791 1.84956 -10.6312 -16.4488 0.0 0.0 0.0 14.1808 26.1493 -15.6846 -2.40408 0.0914934 0.357576 37.5448 -2.70794 -4.68379 -27.0921 0.0 0.0 -0.0 0.0 -0.0 2.91484 0.0532298 -8.56185 6.12765 0.30038 0.891606 28.0339 19.5338 4.08129 -25.0947 0.0 0.0 0.0 0.0 0.0 
3092.46 720.675 -480.737 -174.219 -78.7013 -169.854 2.42701 -0.0676131 -2.10335 2.42947 0.0663351 -2.10339 2.42658 0.420201 -2.06207 2.42066 0.0893367 -2.10254 -7.60995 9.63634 5.14795 -7.56112 14.2994 7.14756 -0.0 0.0 -0.0 0.23601 24.0668 3.09879 -30.4998 -33.5953 65.7851 0.387101 -10.8554 0.0367807 -53.3505 -4.46929 4.84656 2.2784 8.89679 18.7466 -0.0 0.0 -0.0 5.45933 0.814139 -10.5362 -8.38679 18.039 -64.2165 2.09844 46.1041 -0.893067 72.5552 3.00973 8.13569 1.85273 -10.2655 -16.342 0.0 0.0 0.0 13.7912 26.829 -15.8441 -6.81334 0.219972 1.02189 34.923 0.302234 -4.40951 -22.004 0.0 0.0 -0.0 0.0 -0.0 1.50543 0.668651 -8.09989 5.42605 0.261163 0.79118 26.5346 21.188 3.9573 -27.5177 0.0 0.0 0.0 0.0 0.0 
3099.17 718.959 -480.617 -174.176 -78.9015 -169.947 2.36898 -0.106231 -2.0193 2.37125 0.0224503 -2.02197 2.37009 0.365133 -1.98886 2.36457 0.0465139 -2.02155 -6.78002 10.7577 6.94643 -6.66052 14.9435 9.07279 -0.0 0.0 -0.0 0.382181 23.5141 3.24226 -29.5246 -33.5738 65.7952 0.333104 -9.37013 0.0272988 -53.3804 -4.47288 4.84792 2.27863 8.61693 18.65 -0.0 0.0 -0.0 5.45444 2.65655 -10.4696 -9.50737 17.3583 -64.2197 1.98624 44.5308 -0.813281 73.3983 3.10041 8.19472 1.82698 -10.479 -16.2445 0.0 0.0 0.0 13.0403 27.5163 -15.2517 -4.37184 0.155152 0.652844 35.0714 1.59714 -4.41585 -18.4706 0.0 0.0 -0.0 0.0 -0.0 1.46605 0.351808 -8.25079 4.8575 0.230289 0.709457 28.9635 21.452 4.26179 -29.1587 0.0 0.0 0.0 0.0 0.0 
3105.96 719.669 -482.528 -177.013 -78.2852 -173.132 2.38199 -0.145201 -1.90636 2.38401 -0.0236227 -1.91173 2.38448 0.300515 -1.88812 2.37951 -0.00139367 -1.91188 -8.46463 10.6099 8.2999 -8.31644 14.0503 10.5384 -0.0 0.0 -0.0 0.779348 24.0419 3.8306 -30.0004 -33.1076 65.11 0.382599 -10.7321 0.0359377 -52.6278 -4.38277 4.81323 2.11342 8.82137 17.5937 -0.0 0.0 -0.0 5.53713 2.22775 -10.6486 -10.0342 16.6821 -64.7207 1.90144 43.2823 -0.754473 74.6558 3.23725 8.28028 1.78097 -10.5356 -15.9569 0.0 0.0 0.0 12.7375 27.9757 -15.1746 -7.15095 0.227695 1.07313 34.6861 4.78305 -4.36829 -15.1722 0.0 0.0 -0.0 0.0 -0.0 0.154695 0.66538 -7.26928 4.95256 0.235394 0.723142 28.6163 21.9673 4.24056 -29.8797 0.0 0.0 0.0 0.0 0.0 
3107.27 721.326 -481.283 -178.577 -78.0182 -174.894 2.30529 -0.0666716 -1.95044 2.3074 0.0575513 -1.95073 2.30512 0.389821 -1.91227 2.30002 0.0829814 -1.94982 -9.53885 11.5802 10.0006 -9.32936 14.944 12.5212 -0.0 0.0 -0.0 0.918992 23.5563 3.97975 -30.6251 -32.8688 63.8729 0.543256 -15.0624 0.0718224 -51.9183 -4.29822 4.77945 1.87122 9.05838 16.0389 -0.0 0.0 -0.0 6.02624 1.08709 -11.6502 -10.4342 16.1003 -64.0842 1.82559 42.1204 -0.703032 75.5391 3.33447 8.33858 1.99812 -10.9125 -17.5427 0.0 0.0 0.0 13.2563 28.3554 -14.9558 -11.879 0.304008 1.79442 37.9176 6.75509 -4.67457 -11.6526 0.0 0.0 -0.0 0.0 -0.0 -0.262707 0.651807 -6.92308 4.73293 0.223633 0.691512 28.7622 23.1302 4.3055 -30.8287 0.0 0.0 0.0 0.0 0.0 
3112.67 722.574 -484.564 179.765 -78.4739 -176.856 2.24448 -0.111191 -1.93202 2.24656 0.0119505 -1.93518 2.24589 0.344176 -1.90437 2.24083 0.0391549 -1.93482 -11.6767 11.7169 11.1975 -11.4357 14.9452 13.9406 -0.0 0.0 -0.0 1.17009 23.4957 4.31854 -30.5833 -32.5897 63.171 0.644655 -17.7106 0.100436 -51.2319 -4.21683 4.74578 1.71682 8.90931 14.9485 -0.0 0.0 -0.0 5.82018 -0.22858 -11.2692 -11.6292 16.1564 -63.9758 1.69849 40.0734 -0.619472 76.2366 3.41188 8.38355 2.07424 -11.912 -18.3944 0.0 0.0 0.0 13.7059 28.784 -14.8175 -16.0045 0.321817 2.42701 37.98 10.2457 -4.69655 -9.81964 0.0 0.0 -0.0 0.0 -0.0 -0.670568 0.732906 -6.19663 4.38294 0.205143 0.641017 28.1773 24.3042 4.28467 -31.9341 0.0 0.0 0.0 0.0 0.0 
3114.93 723.915 -488.944 178.643 -78.2562 -178.292 2.33682 -0.130888 -1.75293 2.33853 -0.019097 -1.75771 2.33887 0.280256 -1.73533 2.33466 0.00271901 -1.75781 -13.2612 11.4021 11.6869 -13.0098 14.4445 14.5047 -0.0 0.0 -0.0 1.42465 23.0188 4.63499 -30.8802 -32.6233 62.2299 0.753585 -20.4708 0.136074 -50.9999 -4.18941 4.73417 1.54235 9.26528 13.913 -0.0 0.0 -0.0 6.02358 0.596347 -11.6542 -12.3306 16.0633 -63.8088 1.55397 37.5861 -0.528833 76.5254 3.44408 8.4019 2.02429 -12.2245 -18.1642 0.0 0.0 0.0 13.997 28.9343 -14.519 -18.3477 0.311644 2.78635 37.4562 10.734 -4.6516 -7.93919 0.0 0.0 -0.0 0.0 -0.0 -0.799952 0.826699 -5.49172 4.11882 0.191394 0.602839 28.086 24.2856 4.27259 -32.291 0.0 0.0 0.0 0.0 0.0 
3118.9 724.361 -489.938 179.936 -78.1173 -177.097 2.4156 -0.193293 -1.81759 2.41743 -0.0772625 -1.82621 2.41961 0.232017 -1.81306 2.41503 -0.0571847 -1.82695 -12.5764 11.5808 11.2305 -12.3499 14.8979 14.0437 -0.0 0.0 -0.0 1.58543 23.1032 4.86296 -30.5267 -32.4259 61.7193 0.808638 -21.8297 0.155939 -50.8492 -4.17163 4.72658 1.35185 9.64592 12.7896 -0.0 0.0 -0.0 5.92436 -1.29858 -11.4892 -12.491 16.2477 -63.4564 1.38056 34.3659 -0.426924 76.4082 3.431 8.39447 1.94255 -13.2578 -17.9636 0.0 0.0 0.0 14.3362 29.7625 -14.7049 -18.7795 0.308166 2.85251 36.2323 11.9423 -4.54567 -7.72296 0.0 0.0 -0.0 0.0 -0.0 -0.600971 0.582497 -5.54751 4.2721 0.199351 0.625004 27.8291 25.5225 4.29636 -33.4464 0.0 0.0 0.0 0.0 0.0 
3120.89 725.095 -492.789 -179.323 -78.9763 -175.942 2.4789 -0.277535 -1.82352 2.48074 -0.160958 -1.83747 2.48562 0.149263 -1.83846 2.48093 -0.14291 -1.83897 -13.8164 11.1256 11.1569 -13.6091 14.3866 13.996 -0.0 0.0 -0.0 2.15982 23.5473 5.6784 -29.9145 -32.0651 60.7526 0.875731 -23.4515 0.181769 -50.8364 -4.17012 4.72593 0.964709 11.7025 11.0139 -0.0 0.0 -0.0 5.84174 -2.01878 -11.3383 -12.6706 16.3006 -62.9845 1.19824 30.691 -0.328834 77.365 3.53824 8.45431 1.9894 -13.1372 -18.2354 0.0 0.0 0.0 14.8628 31.2546 -15.0514 -18.7666 0.308277 2.85053 33.9235 13.531 -4.33287 -7.92275 0.0 0.0 -0.0 0.0 -0.0 -0.273218 0.727403 -5.24922 2.46485 0.109322 0.362391 28.8291 25.5153 4.42022 -33.8971 0.0 0.0 0.0 0.0 0.0 
3122.45 722.65 -496.92 -179.833 -78.5468 -176.601 2.50751 -0.349922 -1.87513 2.50944 -0.229915 -1.89359 2.51675 0.0896161 -1.90539 2.51174 -0.212373 -1.89564 -13.9645 11.169 10.9863 -13.7756 14.6114 13.8699 -0.0 0.0 -0.0 2.57858 23.775 6.26133 -29.0874 -31.9623 60.3411 0.91468 -24.3752 0.197558 -50.6711 -4.15063 4.71754 0.758232 11.529 9.61533 -0.0 0.0 -0.0 5.77215 -1.34219 -11.1945 -12.1968 16.4092 -62.7398 1.08541 28.2652 -0.273299 77.767 3.58359 8.47892 1.94231 -13.4319 -18.0197 0.0 0.0 0.0 15.079 32.4006 -14.9615 -18.623 0.309484 2.82854 34.5283 14.3018 -4.4024 -7.16278 0.0 0.0 -0.0 0.0 -0.0 -0.397514 0.238661 -5.09511 2.26811 0.100023 0.333638 29.016 25.3875 4.4371 -34.1583 0.0 0.0 0.0 0.0 0.0 
3127.11 720.872 -496.501 179.5 -78.6928 -176.596 2.50353 -0.371433 -2.01378 2.50575 -0.242566 -2.03332 2.51402 0.100582 -2.04526 2.50826 -0.223622 -2.03549 -13.8984 10.8369 9.8043 -13.7808 14.6861 12.6546 -0.0 0.0 -0.0 2.88435 23.7719 6.68007 -28.4074 -31.8764 59.6462 0.970658 -25.6794 0.221241 -50.2089 -4.09628 4.69378 0.343102 11.9356 7.10786 -0.0 0.0 -0.0 5.84345 -0.700211 -11.3229 -12.4348 16.3085 -62.9335 0.882215 23.6062 -0.184358 78.3117 3.64531 8.51175 1.78372 -13.5712 -17.0167 0.0 0.0 0.0 15.9463 33.5898 -16.8144 -18.3657 0.311508 2.78912 32.2022 15.1343 -4.17268 -7.59994 0.0 0.0 -0.0 0.0 -0.0 -0.0644405 0.267118 -5.68493 1.12892 0.0481311 0.166547 30.7689 24.7835 4.61836 -34.3144 0.0 0.0 0.0 0.0 0.0 
3130.92 724.241 -497.956 179.556 -79.36 -176.235 2.57802 -0.38928 -2.1128 2.58047 -0.254079 -2.13328 2.58951 0.103103 -2.14587 2.58316 -0.237013 -2.13524 -13.3078 10.7127 8.72189 -13.242 14.9923 11.5251 -0.0 0.0 -0.0 3.62247 23.8768 7.69444 -27.3434 -31.7463 58.928 1.03016 -27.0352 0.247662 -49.9173 -4.0621 4.67857 -0.0645418 12.3281 4.67122 -0.0 0.0 -0.0 5.27866 -0.257392 -10.2118 -12.5146 16.3456 -63.5708 0.749184 20.3611 -0.134539 78.746 3.69474 8.5375 1.66369 -13.9059 -16.3402 0.0 0.0 0.0 16.26 34.6296 -17.3486 -18.3746 0.311442 2.79047 30.3963 15.7316 -3.98621 -8.39337 0.0 0.0 -0.0 0.0 -0.0 0.122806 0.184628 -6.07791 -1.26108 -0.0498673 -0.187101 32.232 24.2126 4.75948 -34.4194 0.0 0.0 0.0 0.0 0.0 
3135.26 723.401 -500.301 179.457 -79.878 -175.89 2.64716 -0.420361 -2.25413 2.64994 -0.276111 -2.27629 2.66038 0.102245 -2.29069 2.65315 -0.260714 -2.27811 -13.1285 10.6592 7.29551 -13.1403 15.7464 10.1459 -0.0 0.0 -0.0 4.08256 23.965 8.32667 -26.8959 -31.4769 58.4553 1.10894 -28.7808 0.284539 -49.693 -4.03585 4.66675 -0.630354 12.8715 1.3256 -0.0 0.0 -0.0 4.49228 -0.089402 -8.67573 -12.7109 16.3098 -64.3442 0.684556 18.7323 -0.112913 78.7686 3.69732 8.53884 1.67506 -14.856 -16.7317 0.0 0.0 0.0 16.4116 35.6872 -17.9597 -18.3452 0.311662 2.78597 30.7482 14.9046 -4.01502 -10.0104 0.0 0.0 -0.0 0.0 -0.0 0.323912 0.133463 -6.2346 -2.77031 -0.104109 -0.412364 32.424 22.8101 4.71622 -34.6248 0.0 0.0 0.0 0.0 0.0 
3137.49 722.917 -501.421 179.692 -80.302 -175.435 2.67396 -0.468055 -2.37886 2.67705 -0.315779 -2.4038 2.6897 0.0828373 -2.42303 2.68163 -0.300762 -2.40573 -12.6873 11.1129 7.46128 -12.6948 16.4266 10.3771 -0.0 0.0 -0.0 4.21128 23.7623 8.50693 -25.9098 -31.4759 58.5218 1.17183 -30.1337 0.315467 -49.5277 -4.01654 4.65797 -0.816223 12.8136 0.131988 -0.0 0.0 -0.0 4.22577 -0.419513 -8.17339 -13.1316 16.4662 -65.047 0.585206 16.1667 -0.0831143 79.0302 3.72719 8.55416 1.50889 -14.4216 -15.5047 0.0 0.0 0.0 16.8499 37.0041 -18.598 -18.255 0.312325 2.77215 30.2542 15.3475 -3.96631 -10.0358 0.0 0.0 -0.0 0.0 -0.0 0.484867 0.227433 -6.23388 -3.75568 -0.136311 -0.56016 32.9962 22.9304 4.78489 -34.3598 0.0 0.0 0.0 0.0 0.0 
